# xmcd CD database file
#
# Track frame offsets:
#	200
#	20670
#	34355
#	62855
#
# Disc length: 1205 seconds
#
# Revision: 3
# Processed by: cddbd v1.5.2PL0 Copyright (c) Steve Scherf et al.
# Submitted via: CDex 1.51
#
DISCID=3404b304
DTITLE=Eric Clapton - Tears in Heaven
DYEAR=1992
DGENRE=Rock
TTITLE0=Tears in Heaven
TTITLE1=Tracks and Lines
TTITLE2=Bad Love
TTITLE3=White Room
EXTD=YEAR: 1992
EXTT0=
EXTT1=
EXTT2=
EXTT3=
PLAYORDER=
